# xmcd
#
# Track frame offsets: 
#        150
#        16075
#        26617
#        38035
#        51212
#        60703
#        73378
#        87288
#        100320
#        113894
#        124246
#        137855
#        150121
#        163678
#        177013
#        189560
#        203129
#        215611
#        228105
#        241670
#        255405
#        270454
#        283043
#        295404
#
# Disc length: 4139 seconds
#
# Revision: 2
# Processed by: cddbd v1.5.2PL0 Copyright (c) Steve Scherf et al.
# Submitted via: ExactAudioCopy v0.95a5
#
DISCID=51102918
DTITLE=Chet Baker Quartet - Easy to Love
DYEAR=2005
DGENRE=Jazz
TTITLE0=Isn't it romantic
TTITLE1=My funny valentine
TTITLE2=The lamp is low
TTITLE3=Maid in Mexico
TTITLE4=I fall in love too easily
TTITLE5=This time the dream's on me
TTITLE6=But not for me
TTITLE7=Russ job
TTITLE8=Imagination
TTITLE9=Long ago and far away
TTITLE10=Easy to love
TTITLE11=Carson city stage
TTITLE12=I get along without you very well
TTITLE13=Batter up
TTITLE14=Time after time
TTITLE15=No ties
TTITLE16=The thrill is gone
TTITLE17=Band aid
TTITLE18=There will never be another you
TTITLE19=Bea's flat
TTITLE20=Moon love
TTITLE21=Happy little sunbeam
TTITLE22=Look for the silver lining
TTITLE23=Winter wonderland
EXTD=YEAR: 2005
EXTT0=
EXTT1=
EXTT2=
EXTT3=
EXTT4=
EXTT5=
EXTT6=
EXTT7=
EXTT8=
EXTT9=
EXTT10=
EXTT11=
EXTT12=
EXTT13=
EXTT14=
EXTT15=
EXTT16=
EXTT17=
EXTT18=
EXTT19=
EXTT20=
EXTT21=
EXTT22=
EXTT23=
PLAYORDER=
